# xmcd
#
# Track frame offsets:
#	150
#	11008
#	20555
#	27871
#	38445
#	48552
#	60111
#	67329
#	74727
#	82706
#	94097
#	103563
#	112676
#	121669
#	129448
#	139156
#	146638
#	157298
#	164645
#	173337
#	182843
#	193102
#	201640
#	210683
#	220210
#	229279
#
# Disc length: 3179 seconds
#
# Revision: 1
# Processed by: cddbd v1.5.1PL0 Copyright (c) Steve Scherf et al.
# Submitted via: audiograbber 1.83.01
#
DISCID=770c691a
DTITLE=Hank Thompson - In The Mood For Hank
DYEAR=1900
DGENRE=Country
TTITLE0=You're Too Young To Cry Now
TTITLE1=I Know Exactly How You Feel
TTITLE2=Prosperity Special
TTITLE3=Tomorrow Night
TTITLE4=Down Yonder
TTITLE5=Gateway To Your Heart
TTITLE6=Rock In The Ocean
TTITLE7=A Cat Has Nine Lives
TTITLE8=A Fooler A Faker
TTITLE9=Wildwood Flower
TTITLE10=Today
TTITLE11=Simple Simon
TTITLE12=You're Walking On My Heart
TTITLE13=Topeka Polka
TTITLE14=Yesterday's Mail
TTITLE15=Set Your Heart For Love
TTITLE16=In The Mood
TTITLE17=What Are We Gonna Do About The Moonlight
TTITLE18=Humpty Dumpty Heart
TTITLE19=Standing On The Outside
TTITLE20=Most Of All
TTITLE21=Redskin Gal
TTITLE22=Rub-A-Dub-Dub
TTITLE23=I Find You Cheatin' On Me
TTITLE24=We've Gone Too Far
TTITLE25=Breakin' In Another Heart
EXTD=
EXTT0=
EXTT1=
EXTT2=
EXTT3=
EXTT4=
EXTT5=
EXTT6=
EXTT7=
EXTT8=
EXTT9=
EXTT10=
EXTT11=
EXTT12=
EXTT13=
EXTT14=
EXTT15=
EXTT16=
EXTT17=
EXTT18=
EXTT19=
EXTT20=
EXTT21=
EXTT22=
EXTT23=
EXTT24=
EXTT25=
PLAYORDER=
